<svg width="12" height="13" viewBox="0 0 12 13" fill="none" xmlns="http://www.w3.org/2000/svg">
<g clip-path="url(#clip0_305_403)">
<path d="M9.2344 12.0729C9.15547 12.0732 9.07845 12.0486 9.01432 12.0026L6.00002 9.81724L2.98572 12.0026C2.92133 12.0493 2.84374 12.0743 2.76419 12.074C2.68464 12.0737 2.60723 12.0481 2.54318 12.0009C2.47912 11.9538 2.43173 11.8874 2.40785 11.8116C2.38396 11.7357 2.38484 11.6542 2.41033 11.5788L3.58596 8.0967L0.539084 6.00724C0.473087 5.96203 0.423276 5.89691 0.396929 5.82137C0.370582 5.74584 0.36908 5.66386 0.392643 5.58741C0.416206 5.51096 0.463598 5.44405 0.527895 5.39646C0.592193 5.34886 0.670025 5.32308 0.750022 5.32287H4.50893L5.6433 1.83185C5.66774 1.75648 5.71542 1.69079 5.77951 1.6442C5.84359 1.59761 5.92079 1.57251 6.00002 1.57251C6.07925 1.57251 6.15645 1.59761 6.22054 1.6442C6.28462 1.69079 6.3323 1.75648 6.35674 1.83185L7.49112 5.32404H11.25C11.3301 5.324 11.4081 5.34961 11.4726 5.39711C11.5371 5.44461 11.5847 5.51152 11.6084 5.58803C11.6321 5.66453 11.6307 5.74662 11.6044 5.82227C11.5781 5.89792 11.5282 5.96315 11.4621 6.00841L8.41408 8.0967L9.58901 11.5779C9.60804 11.6342 9.6134 11.6943 9.60463 11.7531C9.59586 11.812 9.57322 11.8679 9.53857 11.9163C9.50393 11.9646 9.45827 12.004 9.40539 12.0313C9.3525 12.0585 9.29389 12.0728 9.2344 12.0729Z" fill="#FF859B"/>
</g>
<defs>
<clipPath id="clip0_305_403">
<rect width="12" height="12" fill="white" transform="translate(0 0.822693)"/>
</clipPath>
</defs>
</svg>
